<svg width="172" height="40" viewBox="0 0 172 40" fill="none" xmlns="http://www.w3.org/2000/svg">
<path d="M103.975 14.012C105.607 14.012 106.919 14.516 107.911 15.524C108.919 16.516 109.423 17.908 109.423 19.7V27.5H106.063V20.156C106.063 19.116 105.799 18.324 105.271 17.78C104.743 17.22 104.023 16.94 103.111 16.94C102.199 16.94 101.471 17.22 100.927 17.78C100.399 18.324 100.135 19.116 100.135 20.156V27.5H96.7747V20.156C96.7747 19.116 96.5107 18.324 95.9827 17.78C95.4547 17.22 94.7347 16.94 93.8227 16.94C92.8947 16.94 92.1587 17.22 91.6147 17.78C91.0867 18.324 90.8227 19.116 90.8227 20.156V27.5H87.4627V14.204H90.8227V15.812C91.2547 15.252 91.8067 14.812 92.4787 14.492C93.1667 14.172 93.9187 14.012 94.7347 14.012C95.7747 14.012 96.7027 14.236 97.5187 14.684C98.3347 15.116 98.9667 15.74 99.4147 16.556C99.8467 15.788 100.471 15.172 101.287 14.708C102.119 14.244 103.015 14.012 103.975 14.012Z" fill="#F2C94C"/>
<path d="M118.515 27.716C117.235 27.716 116.083 27.436 115.059 26.876C114.035 26.3 113.227 25.492 112.635 24.452C112.059 23.412 111.771 22.212 111.771 20.852C111.771 19.492 112.067 18.292 112.659 17.252C113.267 16.212 114.091 15.412 115.131 14.852C116.171 14.276 117.331 13.988 118.611 13.988C119.891 13.988 121.051 14.276 122.091 14.852C123.131 15.412 123.947 16.212 124.539 17.252C125.147 18.292 125.451 19.492 125.451 20.852C125.451 22.212 125.139 23.412 124.515 24.452C123.907 25.492 123.075 26.3 122.019 26.876C120.979 27.436 119.811 27.716 118.515 27.716ZM118.515 24.788C119.123 24.788 119.691 24.644 120.219 24.356C120.763 24.052 121.195 23.604 121.515 23.012C121.835 22.42 121.995 21.7 121.995 20.852C121.995 19.588 121.659 18.62 120.987 17.948C120.331 17.26 119.523 16.916 118.563 16.916C117.603 16.916 116.795 17.26 116.139 17.948C115.499 18.62 115.179 19.588 115.179 20.852C115.179 22.116 115.491 23.092 116.115 23.78C116.755 24.452 117.555 24.788 118.515 24.788Z" fill="#F2C94C"/>
<path d="M135.284 14.012C136.868 14.012 138.148 14.516 139.124 15.524C140.1 16.516 140.588 17.908 140.588 19.7V27.5H137.228V20.156C137.228 19.1 136.964 18.292 136.436 17.732C135.908 17.156 135.188 16.868 134.276 16.868C133.348 16.868 132.612 17.156 132.068 17.732C131.54 18.292 131.276 19.1 131.276 20.156V27.5H127.916V20.852V14.204H131.276V15.86C131.724 15.284 132.292 14.836 132.98 14.516C133.684 14.18 134.452 14.012 135.284 14.012Z" fill="#F2C94C"/>
<path d="M156.143 20.564C156.143 21.044 156.111 21.476 156.047 21.86H146.327C146.407 22.82 146.743 23.572 147.335 24.116C147.927 24.66 148.655 24.932 149.519 24.932C150.767 24.932 151.655 24.396 152.183 23.324H155.807C155.423 24.604 154.687 25.66 153.599 26.492C152.511 27.308 151.175 27.716 149.591 27.716C148.311 27.716 147.159 27.436 146.135 26.876C145.127 26.3 144.335 25.492 143.759 24.452C143.199 23.412 142.919 22.212 142.919 20.852C142.919 19.476 143.199 18.268 143.759 17.228C144.319 16.188 145.103 15.388 146.111 14.828C147.119 14.268 148.279 13.988 149.591 13.988C150.855 13.988 151.983 14.26 152.975 14.804C153.983 15.348 154.759 16.124 155.303 17.132C155.863 18.124 156.143 19.268 156.143 20.564ZM152.663 19.604C152.647 18.74 152.335 18.052 151.727 17.54C151.119 17.012 150.375 16.748 149.495 16.748C148.663 16.748 147.959 17.004 147.383 17.516C146.823 18.012 146.479 18.708 146.351 19.604H152.663Z" fill="#F2C94C"/>
<path d="M171.315 14.204L163.083 33.788H159.507L162.387 27.164L157.059 14.204H160.827L164.259 23.492L167.739 14.204H171.315Z" fill="#F2C94C"/>
<g clip-path="url(#clip0_35212_417)">
<path d="M62.9564 9.03259V27.0257" stroke="#009900" stroke-width="3"/>
<path d="M63 10.0068C63.9155 10.0068 64.839 9.97169 65.7472 10.061C66.2723 10.1126 66.7943 10.1311 67.3089 10.2576C67.6869 10.3505 68.0897 10.4217 68.4267 10.6058C68.4857 10.638 68.5796 10.6257 68.6251 10.6755C68.6801 10.7356 68.7666 10.7477 68.8376 10.7807C69.0161 10.8639 69.1945 10.9506 69.354 11.0531C69.5027 11.1487 69.6901 11.1937 69.8294 11.3163C69.8944 11.3734 69.9966 11.414 70.042 11.4834C70.0794 11.5407 70.1647 11.6394 70.2199 11.6785C70.3606 11.7781 70.4728 11.9497 70.5662 12.0902C70.6465 12.2109 70.7539 12.3318 70.815 12.4586C70.9419 12.722 70.9913 12.9715 70.9913 13.2665C70.9913 13.4866 71.0233 13.7483 70.9645 13.9507C70.9296 14.0708 70.9568 14.1968 70.8921 14.3113C70.8626 14.3635 70.8687 14.4363 70.8433 14.4924C70.8177 14.5492 70.7646 14.6099 70.7646 14.6735C70.7646 14.9089 70.559 15.0885 70.4387 15.2725C70.3544 15.4014 70.2455 15.4902 70.1553 15.6084C70.0921 15.6913 69.9609 15.8346 69.8704 15.8855C69.715 15.9727 69.5812 16.1081 69.4327 16.2136C69.2806 16.3216 69.1094 16.371 68.951 16.4489C68.6446 16.5995 68.3425 16.6896 68.0221 16.7987C67.3969 17.0115 66.7327 16.9999 66.0605 16.9999" stroke="#009900" stroke-width="2" stroke-linecap="round"/>
<g filter="url(#filter0_d_35212_417)">
<path d="M65.7335 17.047C66.3027 17.047 66.8618 17 67.4348 17C67.6988 17 67.9509 17.0939 68.2192 17.0939C68.4766 17.0939 68.7217 17.2818 68.9764 17.2818C69.2583 17.2818 69.5051 17.4572 69.7882 17.4696C69.9168 17.4753 70.0293 17.6105 70.1485 17.6105C70.2838 17.6105 70.3876 17.6745 70.5157 17.7071C70.7283 17.7611 70.9227 17.9605 71.1132 18.0332C71.2903 18.1007 71.5333 18.2719 71.6764 18.4194C71.8473 18.5953 72.0552 18.7381 72.169 18.9725C72.2532 19.1459 72.47 19.3126 72.5088 19.5126C72.5327 19.6355 72.665 19.7474 72.6707 19.8648C72.6767 19.9878 72.7276 20.0988 72.7506 20.217C72.7972 20.4573 72.8613 20.7193 72.949 20.945C73.0108 21.104 72.9991 21.4739 72.9991 21.6494C72.9991 21.8921 72.9991 22.1347 72.9991 22.3774C72.9991 22.4862 72.9819 22.5991 72.917 22.6826C72.8447 22.7758 72.8797 22.9355 72.8121 23.0349C72.6947 23.2076 72.5987 23.4365 72.4974 23.6219C72.4551 23.6994 72.2045 24.0349 72.1371 24.0446C71.999 24.0643 71.6329 24.4155 71.5 24.5C71.1892 24.6976 71.0611 24.9353 70.7004 24.9839C70.4874 25.0125 70.2854 25.2041 70.0436 25.2187C69.9229 25.2259 69.8593 25.3126 69.7358 25.3126C69.6184 25.3126 69.5247 25.3596 69.4074 25.3596C69.221 25.3596 69.0441 25.5005 68.8737 25.5005C68.7695 25.5005 68.7083 25.5406 68.6069 25.5474C68.5769 25.5494 68.3516 25.5839 68.3287 25.6048C68.183 25.7382 67.9529 25.6869 67.7859 25.7718C67.7357 25.7974 67.5686 25.8306 67.5191 25.8306C67.3742 25.8306 67.024 25.9701 66.913 25.9701C66.7221 25.9701 66.8561 25.9701 66.6571 25.9701C66.445 25.9701 65.386 26 65.1739 26C64.3043 26 63.8696 25.9701 63 25.9701" stroke="#009900" stroke-width="2" stroke-linecap="round"/>
</g>
<path d="M80.1356 19.7431C80.1356 19.1654 79.1205 18.874 78.7362 18.6665C78.4669 18.5212 78.0841 18.3832 77.7779 18.3832C77.5029 18.3832 77.2061 18.2416 76.9344 18.1964C76.6283 18.1456 76.3175 18.0432 76.0073 18.0432C75.7507 18.0432 75.4942 18.0432 75.2376 18.0432C74.7469 18.0432 74.122 17.9344 73.6555 18.0894C73.1652 18.2523 72.7253 18.4103 72.2794 18.6854C72.0198 18.8456 71.8158 19.0722 71.5816 19.2688C71.3774 19.4403 71.1761 19.6089 71.0044 19.8207C70.7144 20.1786 70.4131 20.4856 70.1803 20.8847C70.0143 21.1694 69.8821 21.5707 69.7877 21.8879C69.5459 22.6999 69.5 23.459 69.5 24.3139C69.5 24.7672 69.5 25.2204 69.5 25.6737C69.5 26.0117 69.5514 26.4982 69.6944 26.807C69.759 26.9465 69.752 27.136 69.8499 27.2603C70.0215 27.4784 70.1098 27.7676 70.3027 27.9759C70.6824 28.3859 71.0452 28.7558 71.4747 29.1092C72.2639 29.7584 73.1552 30.2007 74.0753 30.5845C74.3043 30.68 74.5484 30.7474 74.7828 30.8279C75.0018 30.9031 75.3395 30.9935 75.568 31C76.0519 31.0138 76.5378 31 77.0219 31C77.4865 31 77.9727 30.9666 78.4368 30.9266C78.7976 30.8954 79.1059 30.7364 79.4495 30.6223C79.7161 30.5337 79.9131 30.3003 80.1356 30.1459C80.255 30.063 80.5667 29.7747 80.5904 29.6317C80.6255 29.4196 80.8815 29.2578 80.9402 29.0357C81.1313 28.3137 81.465 27.6134 81.465 26.8532C81.465 26.3515 81.5 25.8423 81.5 25.3338" stroke="#009999" stroke-width="2" stroke-linecap="round"/>
<path d="M77 25H84" stroke="#009999" stroke-width="2" stroke-linecap="round"/>
</g>
<path d="M34.1422 5.85781C30.3647 2.08031 25.3422 0 20 0C14.6578 0 9.63531 2.08031 5.85781 5.85781C2.08031 9.63531 0 14.6578 0 20C0 25.3422 2.08039 30.3646 5.85781 34.1422C9.63523 37.9198 14.6578 40 20 40C25.3422 40 30.3647 37.9197 34.1422 34.1422C37.9197 30.3647 40 25.3422 40 20C40 14.6578 37.9196 9.63539 34.1422 5.85781Z" fill="#33CC95"/>
<g clip-path="url(#clip1_35212_417)">
<path d="M20.5714 8V33.1429" stroke="white" stroke-width="2" stroke-linecap="round" stroke-linejoin="round"/>
<path d="M26.2857 12.5714H17.7143C16.6534 12.5714 15.636 12.9929 14.8859 13.743C14.1357 14.4931 13.7143 15.5106 13.7143 16.5714C13.7143 17.6323 14.1357 18.6497 14.8859 19.3999C15.636 20.15 16.6534 20.5714 17.7143 20.5714H23.4286C24.4894 20.5714 25.5069 20.9929 26.257 21.743C27.0072 22.4932 27.4286 23.5106 27.4286 24.5714C27.4286 25.6323 27.0072 26.6497 26.257 27.3999C25.5069 28.15 24.4894 28.5714 23.4286 28.5714H13.7143" stroke="white" stroke-width="2" stroke-linecap="round" stroke-linejoin="round"/>
</g>
<defs>
<filter id="filter0_d_35212_417" x="58" y="16" width="20" height="19" filterUnits="userSpaceOnUse" color-interpolation-filters="sRGB">
<feFlood flood-opacity="0" result="BackgroundImageFix"/>
<feColorMatrix in="SourceAlpha" type="matrix" values="0 0 0 0 0 0 0 0 0 0 0 0 0 0 0 0 0 0 127 0" result="hardAlpha"/>
<feOffset dy="4"/>
<feGaussianBlur stdDeviation="2"/>
<feComposite in2="hardAlpha" operator="out"/>
<feColorMatrix type="matrix" values="0 0 0 0 0 0 0 0 0 0 0 0 0 0 0 0 0 0 0.25 0"/>
<feBlend mode="normal" in2="BackgroundImageFix" result="effect1_dropShadow_35212_417"/>
<feBlend mode="normal" in="SourceGraphic" in2="effect1_dropShadow_35212_417" result="shape"/>
</filter>
<clipPath id="clip0_35212_417">
<rect width="28" height="26" fill="white" transform="translate(59 8)"/>
</clipPath>
<clipPath id="clip1_35212_417">
<rect width="27.4286" height="27.4286" fill="white" transform="translate(6.85715 6.85714)"/>
</clipPath>
</defs>
</svg>
